<svg width="343" height="198" viewBox="0 0 343 198" xmlns="http://www.w3.org/2000/svg"><title>color-mlh-logo</title><g fill="none" fill-rule="evenodd"><path d="M153.053 163.884a16.005 16.005 0 0 0-11.352 4.702 16.008 16.008 0 0 0-4.702 11.352c0 4.433 1.797 8.445 4.702 11.352a16.005 16.005 0 0 0 11.352 4.702c4.432 0 8.445-1.797 11.351-4.702a16.007 16.007 0 0 0 4.703-11.352 16.01 16.01 0 0 0-4.703-11.352 16.008 16.008 0 0 0-11.351-4.702m0-1.946c9.938 0 17.999 8.06 17.999 18 0 9.938-8.061 18-17.999 18-9.94 0-18.001-8.062-18.001-18-.001-9.941 8.06-18 18.001-18" fill="#0086CB"/><path d="M144.537 179.797c0-1.055-.695-1.647-1.679-1.647h-.603v3.293h.587c.913-.001 1.695-.5 1.695-1.646zm10.732 1.181l-4.445 3.496-4.065-3.195c-.584 1.407-1.997 2.389-3.632 2.389h-3.473v-7.741h3.473c1.826 0 3.138 1.153 3.631 2.391l4.066-3.195 1.506 1.184-3.723 2.929.713.56 3.723-2.927 1.507 1.184-3.724 2.928.715.562 3.728-2.927v-2.687h2.702v5.478h2.69v2.266h-5.392v-2.695zm8.814.426h2.69v2.265h-5.393v-7.743h2.703v5.478z" fill="#0086CB"/><path fill="#ADB2B7" d="M179.744 161.938h.913v36.017h-.913z"/><path d="M200.36 179.567h15.735V165.76l-15.735 2.183zm-.471 0v-11.558l-12.048 1.673v9.885zm0 .468h-12.048v9.876l12.048 1.671zm.471 0v11.612l15.735 2.182v-13.794zm49.652-7.533c0 .354-.124.649-.372.885a1.246 1.246 0 0 1-.885.353c-.349 0-.644-.113-.884-.341-.241-.228-.361-.526-.361-.896 0-.331.118-.618.355-.86.236-.243.533-.364.89-.364s.655.119.896.358c.241.237.361.526.361.865zm-3.764-.871l-4.718 16.595h-2.294l-3.728-13.146h-.047l-3.738 13.146h-2.271l-4.881-16.595h2.144l3.866 13.853h.047l4.03-13.853h1.887l3.821 13.898h.046l3.716-13.898zm3.493 16.595h-1.909v-11.85h1.909zm12.77 0H260.6v-6.758c0-2.507-.924-3.761-2.771-3.761-.939 0-1.726.353-2.358 1.059-.634.706-.95 1.606-.95 2.702v6.758h-1.91v-11.85h1.91v1.967h.047c.894-1.504 2.198-2.256 3.914-2.256 1.312 0 2.312.424 2.999 1.272.688.85 1.031 2.053 1.031 3.61v7.257h-.001zm13.164 0h-1.91v-2.013h-.047c-.885 1.535-2.252 2.303-4.1 2.303-1.507 0-2.707-.538-3.6-1.614-.894-1.077-1.34-2.514-1.34-4.312 0-1.959.495-3.533 1.485-4.721.99-1.188 2.316-1.782 3.978-1.782 1.631 0 2.823.641 3.576 1.921h.047v-7.325h1.91v17.543h.001zm-1.91-5.358v-1.748c0-.979-.328-1.793-.984-2.441-.656-.647-1.454-.972-2.394-.972-1.149 0-2.062.422-2.737 1.267-.675.845-1.014 2.016-1.014 3.513 0 1.357.318 2.432.955 3.223.637.791 1.495 1.187 2.574 1.187 1.049 0 1.91-.378 2.586-1.135.676-.757 1.014-1.721 1.014-2.894zm16.088-.613c0 1.883-.538 3.396-1.613 4.542-1.076 1.146-2.519 1.719-4.327 1.719-1.763 0-3.171-.558-4.223-1.673-1.053-1.114-1.578-2.582-1.578-4.403 0-1.959.539-3.508 1.619-4.646 1.079-1.138 2.566-1.707 4.461-1.707 1.771 0 3.156.55 4.158 1.648 1.002 1.1 1.503 2.607 1.503 4.52zm-1.957.069c0-1.489-.332-2.631-.996-3.426-.664-.794-1.613-1.191-2.848-1.191-1.227 0-2.197.407-2.912 1.221-.715.814-1.071 1.962-1.071 3.442 0 1.42.358 2.528 1.077 3.327.718.799 1.688 1.198 2.906 1.198 1.242 0 2.193-.394 2.854-1.181s.99-1.916.99-3.39zm19.299-5.948l-3.576 11.85h-1.979l-2.668-9.199h-.046l-2.89 9.199h-1.909l-3.6-11.85h2.003l2.633 9.559h.093l2.947-9.559h1.747l2.656 9.559h.093l2.609-9.559zm8.095 8.68c0 1.025-.397 1.859-1.194 2.499-.796.641-1.854.961-3.174.961-1.126 0-2.112-.239-2.958-.718v-2.037c.939.757 1.972 1.135 3.098 1.135 1.515 0 2.271-.552 2.271-1.655 0-.447-.147-.812-.442-1.094-.295-.281-.967-.661-2.016-1.14-1.056-.447-1.801-.928-2.236-1.44-.435-.514-.652-1.194-.652-2.043 0-.979.396-1.797 1.188-2.453.792-.655 1.798-.983 3.017-.983.939 0 1.79.185 2.551.555v1.91c-.776-.563-1.677-.845-2.702-.845-.629 0-1.136.154-1.52.463a1.459 1.459 0 0 0-.577 1.191c0 .525.147.928.443 1.21.295.281.903.615 1.828 1.001 1.134.479 1.93.979 2.388 1.504.458.525.687 1.184.687 1.979z" fill="#00AEEF"/><path d="M34.559 177.4c0 1.14-.387 2.013-1.162 2.62-.774.608-1.87.912-3.29.912h-1.822v4.87h-.823v-11.789h2.887c2.807.001 4.21 1.129 4.21 3.387zm-6.274 2.823h1.621c1.328 0 2.287-.219 2.879-.657.591-.438.887-1.149.887-2.133 0-.909-.28-1.582-.839-2.021-.559-.438-1.425-.656-2.597-.656h-1.951v5.467zm18.748-.331c0 1.871-.467 3.352-1.403 4.439-.935 1.089-2.225 1.633-3.87 1.633-1.64 0-2.928-.544-3.863-1.633-.935-1.088-1.403-2.573-1.403-4.455 0-1.876.472-3.354 1.415-4.432.944-1.077 2.233-1.616 3.867-1.616 1.645 0 2.932.542 3.862 1.625.93 1.083 1.395 2.563 1.395 4.439m-9.644 0c0 1.688.376 2.993 1.129 3.915.752.922 1.833 1.383 3.242 1.383 1.419 0 2.503-.457 3.253-1.371.751-.913 1.125-2.223 1.125-3.927 0-1.699-.374-3.001-1.125-3.907-.75-.905-1.829-1.358-3.237-1.358-1.403 0-2.485.457-3.246 1.371-.761.913-1.141 2.212-1.141 3.894m21.749 5.911h-.677l-2.589-9.096a33.752 33.752 0 0 1-.484-1.839 22.374 22.374 0 0 1-.367 1.612c-.158.608-1.025 3.715-2.6 9.322h-.694l-3.242-11.79h.863l2.065 7.597c.08.307.155.59.226.852a25.053 25.053 0 0 1 .342 1.394c.046.212.088.426.125.642.129-.732.403-1.843.823-3.331l2.016-7.153h.911l2.363 8.21c.274.946.47 1.709.588 2.29.07-.387.16-.798.27-1.234.111-.435.94-3.523 2.488-9.266h.831l-3.258 11.79zm11.781 0h-6.443v-11.79h6.443v.758h-5.62v4.459h5.306v.758h-5.306v5.057h5.62zm3.492-5.137v5.137h-.823v-11.789h2.807c1.462 0 2.543.27 3.241.81.699.541 1.049 1.354 1.049 2.44 0 .79-.209 1.457-.625 2-.417.543-1.05.932-1.899 1.169l3.201 5.37h-.984l-3.04-5.137h-2.927zm0-.71h2.25c.994 0 1.766-.222 2.314-.665.548-.443.823-1.098.823-1.964 0-.897-.269-1.551-.807-1.959-.537-.409-1.414-.613-2.629-.613h-1.951v5.201zm15.434 5.847h-6.443v-11.79h6.443v.758h-5.62v4.459h5.306v.758h-5.306v5.057h5.62zm11.62-6.008c0 1.979-.519 3.475-1.556 4.487-1.038 1.014-2.562 1.52-4.573 1.52h-2.822v-11.788h3.185c1.882 0 3.313.491 4.294 1.476.982.984 1.472 2.418 1.472 4.305m-.895.032c0-1.688-.429-2.958-1.286-3.81-.858-.853-2.117-1.278-3.778-1.278h-2.169v10.338h1.951c3.521 0 5.282-1.75 5.282-5.25m7.894-5.813h3.234c1.457 0 2.527.247 3.21.741.683.495 1.024 1.243 1.024 2.242 0 .683-.209 1.252-.625 1.705-.417.454-1.026.746-1.826.875v.049c.94.14 1.633.437 2.076.891.444.454.665 1.088.665 1.899 0 1.086-.36 1.922-1.08 2.508-.721.586-1.742.879-3.065.879h-3.613v-11.789zm.824 5.249h2.597c1.107 0 1.912-.185 2.415-.552.502-.368.754-.945.754-1.73s-.284-1.354-.851-1.71c-.567-.354-1.413-.531-2.536-.531h-2.379v4.523zm0 .725v5.089h2.774c2.183 0 3.274-.887 3.274-2.661 0-1.618-1.15-2.428-3.451-2.428h-2.597zm12.241.477l3.451-6.451h.887l-3.927 7.232v4.557h-.847v-4.491l-3.943-7.298h.944zm-104.3-54.29c.37.164.689.379.956.646.267.268.481.585.645.955.163.369.245.761.245 1.174v14.559a.478.478 0 0 1-.142.349.475.475 0 0 1-.349.141h-3.588a.433.433 0 0 1-.334-.141.501.501 0 0 1-.13-.349v-13.19h-2.891v13.19a.501.501 0 0 1-.13.349.431.431 0 0 1-.334.141H7.923a.468.468 0 0 1-.346-.141.467.467 0 0 1-.143-.349v-13.19h-2.89v13.19c0 .326-.164.489-.492.489H.492c-.328 0-.492-.163-.492-.489V126.42c0-.326.164-.49.492-.49h15.563c.414 0 .804.082 1.174.245m18.055-.245c.413 0 .804.082 1.176.244.37.164.687.38.953.646.267.267.482.585.645.955.164.369.246.761.246 1.174v14.558a.483.483 0 0 1-.489.492h-3.588a.472.472 0 0 1-.349-.142.48.48 0 0 1-.143-.35v-4.62a.502.502 0 0 0-.128-.349.436.436 0 0 0-.336-.141H28.16a.473.473 0 0 0-.348.141.476.476 0 0 0-.143.349v4.62c0 .327-.164.491-.49.491h-3.562c-.326 0-.49-.164-.49-.491v-14.558c0-.413.078-.805.231-1.174.156-.37.37-.688.647-.955a3.27 3.27 0 0 1 .967-.646 2.895 2.895 0 0 1 1.174-.244h9.138zm-1.549 4.052h-6.066v4.544h6.066v-4.544zm20.819-3.911a.473.473 0 0 1 .141.35v14.558c0 .413-.082.804-.244 1.174-.164.37-.38.693-.647.967a2.816 2.816 0 0 1-.954.646 3.005 3.005 0 0 1-1.174.231h-7.77a3.002 3.002 0 0 1-3.02-3.018v-5.525c0-.326.163-.489.491-.489h3.563c.325 0 .489.163.489.489v3.692c0 .138.046.249.143.335.094.086.21.129.347.129h3.743a.496.496 0 0 0 .348-.129.43.43 0 0 0 .143-.335v-12.725a.5.5 0 0 1 .128-.35.434.434 0 0 1 .337-.142h3.587a.483.483 0 0 1 .349.142m16.326-.141c.414 0 .805.082 1.174.244.37.164.689.38.956.646.267.267.481.585.645.955.164.369.246.761.246 1.174v12.028c0 .413-.082.806-.246 1.175-.164.37-.378.693-.645.968-.267.276-.586.49-.956.646-.369.154-.76.232-1.174.232h-9.138a3.031 3.031 0 0 1-2.142-.878 2.974 2.974 0 0 1-.645-.968 3.008 3.008 0 0 1-.233-1.175v-12.028c0-.413.078-.805.233-1.174.155-.37.37-.688.645-.955a3.3 3.3 0 0 1 .968-.646c.37-.162.763-.244 1.174-.244h9.138zm-1.548 4.388h-6.066v9.292h6.066v-9.292zm24.365 13.267c.067.121.077.22.025.296-.053.078-.147.117-.284.117h-4.104a.832.832 0 0 1-.414-.117.782.782 0 0 1-.309-.296l-2.737-4.905c-.034-.067-.095-.103-.181-.103h-3.071c-.086 0-.128.043-.128.129v4.801c0 .327-.164.491-.491.491h-3.561c-.328 0-.491-.164-.491-.491V126.42c0-.326.163-.49.491-.49h11.667c.411 0 .804.082 1.174.244.37.164.687.38.954.646.266.267.483.585.647.955.161.369.243.761.243 1.174v6.789c0 .654-.193 1.244-.579 1.768a2.879 2.879 0 0 1-1.486 1.071l-.077.026c-.12.034-.145.087-.076.154l.025.051 2.763 4.777zm-5.138-13.448h-6.22v4.389h6.22v-4.389zm29.479 9.472a.43.43 0 0 1 .336.143.497.497 0 0 1 .128.348v3.408a.497.497 0 0 1-.128.348.43.43 0 0 1-.336.143h-11.15c-.328 0-.491-.164-.491-.49V126.42c0-.326.163-.49.491-.49h3.561c.327 0 .491.164.491.49v12.726c0 .138.046.249.141.335a.5.5 0 0 0 .349.129h6.608v-.001zm16.662-13.538a.485.485 0 0 1 .141.35v3.251a.44.44 0 0 1-.141.336.502.502 0 0 1-.349.13h-8.648c-.086 0-.128.043-.128.129v2.812c0 .069.042.104.128.104h7.384c.136 0 .248.047.334.141.086.096.13.211.13.35v2.581a.497.497 0 0 1-.13.348.43.43 0 0 1-.334.142h-7.384c-.086 0-.128.043-.128.129v2.788c0 .086.042.129.128.129h8.648a.484.484 0 0 1 .49.491v3.228a.482.482 0 0 1-.49.49h-12.828c-.328 0-.492-.163-.492-.489v-17.087a.48.48 0 0 1 .143-.35.472.472 0 0 1 .349-.142h12.828a.472.472 0 0 1 .349.139m16.376-.141c.414 0 .805.082 1.176.244.37.164.687.38.954.646.267.266.481.585.645.955.164.369.246.761.246 1.174v14.558a.487.487 0 0 1-.49.492h-3.587a.47.47 0 0 1-.349-.142.477.477 0 0 1-.143-.35v-4.62a.502.502 0 0 0-.128-.349.437.437 0 0 0-.336-.141h-5.111a.475.475 0 0 0-.349.141.48.48 0 0 0-.143.349v4.62c0 .327-.163.491-.489.491h-3.563c-.325 0-.489-.164-.489-.491v-14.558c0-.413.078-.805.231-1.174.156-.37.37-.688.647-.955.273-.267.597-.482.966-.646.37-.162.763-.244 1.175-.244h9.137zm-1.548 4.052h-6.066v4.544h6.066v-4.544zm23.629 4.297a.477.477 0 0 1 .143.35v6.35c0 .413-.082.804-.246 1.174-.164.37-.378.693-.645.967a2.825 2.825 0 0 1-.956.646c-.369.155-.76.231-1.174.231h-9.137a3.014 3.014 0 0 1-2.143-.877 2.975 2.975 0 0 1-.645-.967 3.007 3.007 0 0 1-.233-1.174V128.95c0-.413.078-.805.233-1.174.156-.37.37-.688.645-.955a3.32 3.32 0 0 1 .968-.646c.37-.163.763-.245 1.175-.245h10.66c.139 0 .254.047.349.142a.48.48 0 0 1 .143.35v3.406a.482.482 0 0 1-.492.491h-8.646a.499.499 0 0 0-.349.129.436.436 0 0 0-.142.336v8.363c0 .138.048.249.142.335.095.086.21.129.349.129h5.111a.453.453 0 0 0 .334-.129.453.453 0 0 0 .13-.335v-4.517c0-.139.046-.254.141-.35a.474.474 0 0 1 .349-.142h3.587c.139 0 .254.047.349.141m19.051-8.208a.485.485 0 0 1 .141.35v14.558c0 .413-.082.804-.246 1.174-.164.37-.378.693-.645.967a2.826 2.826 0 0 1-.954.646 3.02 3.02 0 0 1-1.177.231h-9.137a3.014 3.014 0 0 1-2.141-.877 2.95 2.95 0 0 1-.647-.967 3.042 3.042 0 0 1-.231-1.174v-14.558c0-.327.164-.491.489-.491h3.563c.326 0 .489.164.489.491v12.725c0 .138.049.249.143.335.095.086.21.129.349.129h5.111c.136 0 .25-.043.336-.129a.451.451 0 0 0 .128-.335v-12.725c0-.139.048-.255.144-.35a.47.47 0 0 1 .349-.142h3.587a.488.488 0 0 1 .349.142m17.888 0a.482.482 0 0 1 .142.35v3.251c0 .139-.049.25-.142.336a.502.502 0 0 1-.349.13H201.1c-.086 0-.129.043-.129.129v2.812c0 .069.043.104.129.104h7.384c.136 0 .248.047.334.141.086.096.13.211.13.35v2.581a.497.497 0 0 1-.13.348.43.43 0 0 1-.334.142H201.1c-.086 0-.129.043-.129.129v2.788c0 .086.043.129.129.129h8.647a.48.48 0 0 1 .349.143.48.48 0 0 1 .142.348v3.228a.483.483 0 0 1-.491.49h-12.829c-.328 0-.491-.163-.491-.489v-17.087a.48.48 0 0 1 .143-.35.472.472 0 0 1 .349-.142h12.828a.472.472 0 0 1 .349.139m27.707-.141a.48.48 0 0 1 .49.491v17.088a.474.474 0 0 1-.14.348.476.476 0 0 1-.35.143h-3.588a.467.467 0 0 1-.348-.143.47.47 0 0 1-.144-.348v-5.963a.453.453 0 0 0-.128-.335.457.457 0 0 0-.337-.129h-5.11a.502.502 0 0 0-.349.129.43.43 0 0 0-.141.335v5.963c0 .326-.164.49-.491.49h-3.562c-.326 0-.49-.164-.49-.49V126.42c0-.326.164-.49.49-.49h3.562c.327 0 .491.164.491.49v5.782c0 .326.162.49.489.49h5.11c.139 0 .25-.047.337-.142a.498.498 0 0 0 .128-.349v-5.782c0-.137.048-.254.144-.349a.47.47 0 0 1 .348-.142h3.589v.002zm16.725 0c.414 0 .804.082 1.176.244.37.164.687.38.954.646.266.267.48.585.645.955.163.369.245.761.245 1.174v14.558a.482.482 0 0 1-.49.492h-3.588a.474.474 0 0 1-.349-.142.48.48 0 0 1-.142-.35v-4.62a.499.499 0 0 0-.13-.349.434.434 0 0 0-.336-.141h-5.109a.476.476 0 0 0-.35.141.476.476 0 0 0-.143.349v4.62c0 .327-.164.491-.489.491h-3.562c-.325 0-.489-.164-.489-.491v-14.558c0-.413.077-.805.23-1.174.155-.37.369-.688.647-.955.273-.267.596-.482.966-.646.37-.162.762-.244 1.174-.244h9.14zm-1.548 4.052h-6.066v4.544h6.066v-4.544zm13.254.465a.427.427 0 0 0-.141.335v8.364c0 .137.046.247.141.335a.502.502 0 0 0 .349.129h8.286c.137 0 .255.047.35.142a.47.47 0 0 1 .141.348v3.407a.475.475 0 0 1-.141.35.477.477 0 0 1-.35.142H264.57a3.024 3.024 0 0 1-2.142-.878 2.968 2.968 0 0 1-.646-.967 2.998 2.998 0 0 1-.232-1.176v-12.029c0-.412.076-.805.232-1.174.153-.37.37-.688.646-.955.274-.267.598-.482.968-.646.37-.162.761-.244 1.174-.244h10.299c.137 0 .255.047.35.142a.474.474 0 0 1 .141.349v3.407a.473.473 0 0 1-.141.349.475.475 0 0 1-.35.143h-8.286a.492.492 0 0 0-.349.127m23.503 3.097c-.053.052-.061.111-.026.182l6.041 9.859c.066.121.078.22.024.296-.052.078-.146.117-.282.117h-4.286a.829.829 0 0 1-.413-.117.784.784 0 0 1-.31-.296l-3.896-7.047c-.052-.086-.097-.094-.13-.025l-2.144 2.349a1.014 1.014 0 0 0-.218.375c-.061.163-.09.314-.09.451v3.82c0 .326-.164.49-.492.49h-3.56c-.328 0-.492-.164-.492-.49V126.42c0-.326.164-.49.492-.49h3.56c.328 0 .492.164.492.49v7.666l6.658-7.795c.087-.103.206-.188.361-.259.155-.068.301-.103.439-.103h4.285c.137 0 .218.034.246.103.024.07-.008.156-.094.259l-6.165 7.253zm13.913 9.964c0 .326-.164.489-.492.489h-3.561c-.328 0-.492-.163-.492-.489V126.42c0-.326.164-.49.492-.49h3.561c.328 0 .492.164.492.49v17.088zm17.384-17.333c.37.164.688.379.954.646.266.268.483.585.646.955.161.369.243.761.243 1.174v14.559a.48.48 0 0 1-.489.49h-3.589a.433.433 0 0 1-.336-.141.5.5 0 0 1-.128-.349v-12.726a.43.43 0 0 0-.143-.335.495.495 0 0 0-.349-.13h-5.11a.497.497 0 0 0-.349.13.426.426 0 0 0-.142.335v12.726c0 .326-.164.489-.491.489h-3.561c-.328 0-.491-.163-.491-.489V126.42c0-.326.163-.49.491-.49h11.667c.414 0 .807.082 1.177.245m20.905 8.104a.477.477 0 0 1 .143.35v6.35c0 .413-.082.804-.246 1.174-.164.37-.378.693-.645.967a2.834 2.834 0 0 1-.956.646c-.369.155-.76.231-1.174.231h-9.138a3.017 3.017 0 0 1-2.143-.877 2.975 2.975 0 0 1-.645-.967 2.989 2.989 0 0 1-.233-1.174V128.95c0-.413.078-.805.233-1.174.155-.37.369-.688.645-.955a3.32 3.32 0 0 1 .968-.646 2.89 2.89 0 0 1 1.175-.245h10.66c.14 0 .254.047.35.142a.48.48 0 0 1 .143.35v3.406a.482.482 0 0 1-.493.491h-8.646a.501.501 0 0 0-.35.129.436.436 0 0 0-.142.336v8.363c0 .138.048.249.142.335.096.086.21.129.35.129h5.11a.451.451 0 0 0 .334-.129.454.454 0 0 0 .131-.335v-4.517c0-.139.046-.254.141-.35a.474.474 0 0 1 .349-.142h3.587c.14 0 .255.047.35.141" fill="#353535"/><path d="M108.886 1.546c2.337 1.033 4.348 2.388 6.036 4.069 1.684 1.684 3.043 3.69 4.078 6.022a18.114 18.114 0 0 1 1.549 7.406v94.796c0 .87-.3 1.603-.897 2.197-.599.598-1.333.896-2.202.896H94.776c-.872 0-1.578-.299-2.121-.896-.545-.595-.816-1.327-.816-2.197V27.67h-18.27v86.169c0 .87-.272 1.603-.815 2.197-.546.598-1.252.896-2.121.896H50.079c-.871 0-1.605-.299-2.202-.896-.599-.595-.897-1.327-.897-2.197V27.67H28.71v86.169c0 2.063-1.035 3.094-3.099 3.094H3.099c-2.067 0-3.099-1.03-3.099-3.094V3.092C0 1.032 1.032 0 3.099 0h98.365c2.61 0 5.082.516 7.422 1.546" fill="#C53C02"/><path d="M108.886 1.546c2.337 1.033 4.348 2.388 6.036 4.069 1.684 1.684 3.043 3.69 4.078 6.022a18.114 18.114 0 0 1 1.549 7.406v8.449l-28.71.177H28.71L0 27.492v-24.4C0 1.032 1.032 0 3.099 0h98.365c2.61 0 5.082.516 7.422 1.546" fill="#751B00"/><path d="M219.416 88.544c.921 0 1.669.308 2.247.919.575.613.864 1.365.864 2.255v22.053c0 .894-.289 1.645-.864 2.255-.578.614-1.326.919-2.247.919h-77.661c-2.189 0-3.283-1.057-3.283-3.174V3.175c0-2.115 1.094-3.175 3.283-3.175h23.848c2.187 0 3.283 1.06 3.283 3.175v82.363c0 .893.316 1.616.951 2.172.632.558 1.409.835 2.333.835h47.246v-.001z" fill="#265A8F"/><path d="M168.637 116.945h-26.889c-2.185 0-3.276-1.057-3.276-3.174V3.174c0-2.114 1.091-3.174 3.276-3.174h23.792c2.182 0 3.276 1.06 3.276 3.174v82.364c0 .892-.179 31.407-.179 31.407" fill="#162F51"/><path d="M338.78 0c.926 0 1.708.309 2.346.921a3.03 3.03 0 0 1 .956 2.262v110.911c0 .895-.32 1.648-.956 2.261-.638.615-1.42.922-2.346.922h-24.155c-.929 0-1.711-.307-2.346-.922-.638-.612-.956-1.366-.956-2.261V75.392c0-.892-.291-1.618-.869-2.178-.581-.557-1.333-.837-2.259-.837h-33.883c-.929 0-1.711.28-2.346.837-.639.56-.956 1.286-.956 2.178v38.702c0 2.123-1.103 3.183-3.303 3.183h-23.98c-2.202 0-3.302-1.06-3.302-3.183V3.184c0-2.12 1.1-3.183 3.302-3.183h23.98c2.2 0 3.303 1.063 3.303 3.183v37.529c0 2.123 1.1 3.183 3.302 3.183h33.883c.926 0 1.678-.306 2.259-.921.578-.613.869-1.367.869-2.262V3.184c0-.892.318-1.646.956-2.262.635-.612 1.417-.921 2.346-.921h24.155V0z" fill="#FDEE00"/><path d="M271.011 75.392v38.701c0 2.123-1.103 3.185-3.302 3.185h-23.981c-2.202 0-3.302-1.062-3.302-3.185V3.183c0-2.12 1.1-3.183 3.302-3.183h23.981c2.199 0 3.302 1.063 3.302 3.183v72.209zM338.78 0c.926 0 1.708.309 2.346.921.636.616.956 1.369.956 2.262v110.91c0 .896-.32 1.649-.956 2.263-.638.615-1.42.921-2.346.921h-24.155c-.929 0-1.711-.306-2.346-.921-.638-.613-.956-1.367-.956-2.263V3.183c0-.893.318-1.646.956-2.262.635-.612 1.417-.921 2.346-.921h24.155z" fill="#ECC700"/></g></svg>